{
	"asset":{
		"version":"2.0",
		"generator":"Created using the official Cinema 4D glTF Exporter 1.000x284978"
	},
	"scenes":[{
		"nodes":[0]
	}],
	"nodes":[{
		"name":"Extrude",
		"translation":[0.009272841736674309,
		-0.2849387526512146,
		-0.3769793212413788],
		"rotation":[0.0,
		0.0,
		0.0,
		-1.0],
		"scale":[1.0,
		1.0,
		1.0],
		"children":[1]
	},
	{
		"name":"Extrude",
		"mesh":0
	}],
	"meshes":[{
		"name":"Extrude",
		"primitives":[{
			"attributes":{
				"POSITION":1,
				"NORMAL":2,
				"TEXCOORD_0":3
			},
			"indices":0,
			"material":0
		}]
	}],
	"accessors":[{
		"bufferView":0,
		"type":"SCALAR",
		"componentType":5123,
		"count":90288,
		"byteOffset":0,
		"min":[0],
		"max":[59403]
	},
	{
		"bufferView":1,
		"type":"VEC3",
		"componentType":5126,
		"count":59404,
		"byteOffset":0,
		"min":[-28.739505767822267,
		-20.355833053588868,
		-3.4680068492889406],
		"max":[28.806331634521486,
		18.665008544921876,
		4.200089454650879]
	},
	{
		"bufferView":1,
		"type":"VEC3",
		"componentType":5126,
		"count":59404,
		"byteOffset":12,
		"min":[-0.9999837875366211,
		-0.9999707937240601,
		-1.0],
		"max":[0.9999961256980896,
		0.9999814033508301,
		1.0]
	},
	{
		"bufferView":1,
		"type":"VEC2",
		"componentType":5126,
		"count":59404,
		"byteOffset":24,
		"min":[0.0,
		0.0],
		"max":[1.0,
		1.0]
	}],
	"bufferViews":[{
		"buffer":0,
		"byteOffset":0,
		"byteLength":180576,
		"target":34963
	},
	{
		"buffer":0,
		"byteOffset":180576,
		"byteLength":1900928,
		"target":34962,
		"byteStride":32
	}],
	"buffers":[{
		"uri":"data:application/octet-stream;base64,",
		"byteLength":2081504
	}],
	"materials":[{
		"pbrMetallicRoughness":{
			"baseColorFactor":[1.0,
			1.0,
			1.0,
			1.0],
			"metallicFactor":1.0,
			"roughnessFactor":0.1
		},
		"emissiveFactor":[0.0,
		0.0,
		0.0],
		"alphaMode":"OPAQUE",
		"doubleSided":true,
		"name":"Mat.4"
	}]
}